<svg width="460" height="172" viewBox="0 0 460 172" fill="none" xmlns="http://www.w3.org/2000/svg">
<path d="M113.557 0.5V98.7087V99.2087H114.057H135.5V133.004H114.057H113.557V133.504V171.5H73.5638V133.504V133.004H73.0638H0.5V94.9339L74.9942 0.5H113.557ZM74.2695 99.4555H74.7695V98.9555V42.9383V41.4956L73.8767 42.6289L29.7491 98.6461L29.1115 99.4555H30.1418H74.2695Z" stroke="black"/>
<path d="M460 98.7087V133.504H438.057V172H397.064V133.504H324V94.7604L398.752 0H438.057V98.7087H460ZM398.27 98.9555V42.9383L354.142 98.9555H398.27Z" fill="black"/>
<path d="M280.296 143.428C279.099 147.575 277.12 151.17 274.403 154.349C268.924 160.801 261.787 164.626 253.914 167.252C243.785 170.662 233.333 172.045 222.652 171.999C194.059 171.861 165.467 171.768 136.875 171.676C136.599 171.676 136.322 171.676 136 171.308C153.542 169.326 171.13 167.298 188.949 165.317C184.482 159.51 183.838 153.75 188.718 147.575C188.626 148.22 188.626 148.497 188.58 148.773C188.534 149.05 188.534 149.326 188.534 149.649C188.488 153.013 190.284 155.087 193.645 155.501C197.052 155.916 199.861 154.672 202.347 152.506C205.017 150.202 206.813 147.252 208.24 144.073C211.647 136.746 213.351 128.912 214.364 120.939C215.239 113.935 215.745 106.884 216.436 99.9716C217.034 104.165 217.541 108.543 218.278 112.875C218.784 116.054 219.521 119.188 220.211 122.322C220.349 122.921 220.58 123.566 220.902 124.073C221.224 124.58 221.823 125.317 222.145 125.271C222.698 125.179 223.48 124.58 223.618 124.073C224.309 121.354 225.138 118.635 225.414 115.87C226.289 106.193 226.013 96.5615 224.862 86.8841C224.816 86.4233 224.816 85.9625 224.769 85.2712C225.276 85.6399 225.644 85.8703 225.967 86.1468C229.005 88.8657 232.505 89.5569 236.234 88.0823C239.089 86.9302 241.805 85.3173 244.568 83.9348C247.284 82.5984 250.001 81.1699 252.809 79.9717C256.124 78.5892 259.485 78.9118 262.616 80.709C265.102 82.1376 267.543 83.7044 270.029 85.133C272.423 86.5155 274.91 87.7597 278.086 87.0684C277.81 88.5892 277.718 89.9717 277.35 91.262C275.968 96.3772 276.613 101.446 277.58 106.469C278.823 113.013 280.25 119.557 281.309 126.147C281.862 129.695 281.816 133.335 282 137.114C281.309 137.022 281.079 137.022 280.895 136.93C270.628 131.584 259.9 131.446 248.988 134.165C244.337 135.363 239.825 137.16 235.175 138.497C232.09 139.418 228.959 140.11 225.782 140.709C222.652 141.308 219.935 139.971 217.219 138.589C219.29 141.676 222.145 143.612 225.828 144.211C229.604 144.856 233.241 143.935 236.879 142.967C242.818 141.4 248.757 139.649 254.789 138.543C263.077 137.068 271.18 138.036 278.731 142.229C279.145 142.736 279.652 143.059 280.296 143.428Z" fill="black"/>
<path d="M194.752 148.589C193.969 148.358 193.094 147.667 192.818 146.93M194.752 148.589C197.146 149.234 199.264 148.358 201.198 146.93H192.818M194.752 148.589L194.893 148.109C194.891 148.109 194.889 148.108 194.888 148.108M194.752 148.589L194.882 148.106C194.884 148.107 194.886 148.107 194.888 148.108M192.818 146.93C192.634 146.469 193.232 145.317 193.785 144.994L192.818 146.93ZM194.888 148.108C194.572 148.014 194.22 147.821 193.916 147.566C193.607 147.308 193.385 147.017 193.286 146.754L193.286 146.754L193.285 146.75C193.285 146.75 193.285 146.75 193.285 146.75C193.285 146.746 193.278 146.698 193.302 146.585C193.33 146.458 193.387 146.302 193.471 146.136C193.649 145.786 193.882 145.517 194.037 145.426L194.037 145.426L194.049 145.419C199.761 141.864 200.638 136.276 200.731 130.441C200.916 120.319 198.563 110.509 195.986 100.377C195.962 100.285 195.927 100.167 195.865 100.066C195.835 100.017 195.771 99.924 195.655 99.8579C195.512 99.776 195.335 99.7623 195.176 99.8316C195.048 99.8873 194.973 99.9784 194.94 100.025C194.901 100.078 194.874 100.132 194.856 100.174C194.819 100.257 194.79 100.352 194.766 100.443C194.672 100.801 194.583 101.403 194.494 102.053C194.463 102.278 194.432 102.512 194.401 102.748C194.339 103.211 194.277 103.685 194.211 104.131C194.11 104.81 194.009 105.381 193.906 105.721C193.833 105.948 193.761 106.174 193.689 106.4C192.936 108.757 192.2 111.057 191.128 113.204L191.125 113.21C190.488 114.527 189.233 115.711 187.93 116.611L187.928 116.612C186.375 117.691 184.796 117.931 183.466 117.513C182.135 117.094 180.971 115.991 180.302 114.219L180.302 114.219L180.299 114.212C179.729 112.762 179.503 111.12 179.319 109.461C178.593 101.419 180.543 93.8605 183.924 86.6352L183.925 86.6339C184.678 85.013 185.523 83.4232 186.386 81.8283C186.517 81.5866 186.648 81.3447 186.779 81.1025C187.513 79.7507 188.25 78.3912 188.937 77.0155C189.147 76.5952 189.3 76.0935 189.371 75.5945C189.441 75.0995 189.434 74.5704 189.29 74.1084L189.288 74.1041C187.95 69.9514 188.35 66.0881 190.489 62.3402C191.354 60.8369 192.198 59.326 193.04 57.8185C194.947 54.404 196.845 51.007 198.946 47.7564C203.323 41.0909 205.597 33.7844 206.939 26.0483L206.94 26.0457C207.719 21.4088 208.772 16.7854 210.324 12.4446L210.325 12.443C211.994 7.72431 214.627 4.59343 218.025 2.72598C221.434 0.852766 225.667 0.221866 230.579 0.608811C234.518 0.924371 236.921 3.56748 239.731 6.6683C233.664 6.03374 228.688 7.90619 224.389 11.814L224.387 11.8156C222.936 13.1473 221.472 15.545 220.492 17.4982C219.998 18.4808 219.614 19.3796 219.407 20.0086C219.31 20.3064 219.232 20.6015 219.23 20.8239C219.229 20.8844 219.234 20.965 219.258 21.0501C219.282 21.1333 219.337 21.2653 219.472 21.3643C219.619 21.4723 219.782 21.4849 219.904 21.4638C219.985 21.4499 220.053 21.4211 220.106 21.3927C220.115 21.3907 220.132 21.3863 220.162 21.3787L220.165 21.3781C220.187 21.3725 220.255 21.3556 220.322 21.3221C220.361 21.3024 220.52 21.2162 220.589 21.0312C223.473 15.4902 227.212 12.5561 231.184 11.2015C235.183 9.83754 239.471 10.0566 243.45 10.9215C246.861 11.6635 250.063 12.9528 253.109 14.6942C242.741 13.3873 234.152 17.0139 227.387 24.8055L227.385 24.8074C220.21 33.1545 216.911 43.0339 216.169 53.9009L216.169 53.9018C215.466 64.4573 215.208 74.9769 215.462 85.527C215.119 83.5355 214.777 81.5396 214.445 79.5219C214.424 79.3961 214.392 79.2328 214.355 79.0808C214.323 78.9498 214.272 78.7611 214.2 78.63C214.181 78.5957 214.141 78.5279 214.073 78.4659C214.008 78.4062 213.828 78.2767 213.581 78.3432C213.367 78.4009 213.272 78.5661 213.246 78.6172C213.21 78.6854 213.192 78.7522 213.182 78.7968C213.143 78.9628 213.13 79.2262 213.129 79.5844C213.038 80.8168 212.945 82.0704 212.945 83.327C212.485 96.6333 211.611 109.876 209.361 122.974L209.36 122.977C208.445 128.476 206.947 133.937 205.453 139.386C205.378 139.66 205.303 139.934 205.228 140.208L205.226 140.213C204.565 142.727 203.067 144.935 200.902 146.527L200.901 146.528C199.025 147.914 197.068 148.693 194.888 148.108ZM195.651 101.09C195.679 100.931 195.707 100.798 195.733 100.696C195.752 100.625 195.765 100.59 195.77 100.578C195.773 100.572 195.767 100.588 195.749 100.612C195.736 100.63 195.682 100.702 195.575 100.749C195.572 100.75 195.568 100.751 195.565 100.753C195.544 100.669 195.522 100.584 195.501 100.5C195.418 100.173 195.335 100.246 195.251 100.563C195.237 100.619 195.222 100.681 195.207 100.75C195.191 100.743 195.175 100.735 195.159 100.726C195.096 100.691 195.056 100.648 195.034 100.619C195.022 100.604 195.015 100.592 195.012 100.587C195.003 100.573 194.999 100.564 194.999 100.565C195 100.566 195.006 100.583 195.016 100.623C195.058 100.785 195.099 100.947 195.14 101.109C195.062 101.568 194.981 102.173 194.897 102.808C194.743 103.974 194.575 105.238 194.383 105.87C194.31 106.099 194.237 106.328 194.164 106.557C193.413 108.907 192.666 111.244 191.575 113.428L195.651 101.09ZM220.23 20.8328C220.23 20.8327 220.23 20.8326 220.23 20.8325C220.23 20.8347 220.23 20.8349 220.23 20.8328ZM189.366 79.0457L189.328 79.1017L183.932 112.23L183.47 112.422C183.47 112.422 183.471 112.423 183.471 112.423C183.738 113.063 184.214 113.568 184.853 113.626C185.506 113.686 186.063 113.259 186.436 112.62L186.438 112.616C187.174 111.327 187.946 109.888 188.287 108.379C188.849 106.017 189.346 103.652 189.842 101.294C190.576 97.8026 191.307 94.3248 192.242 90.8862L192.242 90.8852C192.823 88.7278 192.636 86.7388 192.231 84.844C192.05 83.9988 191.823 83.1635 191.601 82.3433C191.575 82.2478 191.549 82.1525 191.523 82.0574C191.275 81.1401 191.038 80.2389 190.869 79.3278C190.839 79.1639 190.784 78.99 190.677 78.8457C190.557 78.6851 190.368 78.5613 190.129 78.5602C189.918 78.5592 189.751 78.6549 189.645 78.738C189.534 78.8253 189.441 78.9352 189.366 79.0457Z" stroke="black"/>
<path d="M252.856 18.1748C264.412 18.6357 275.831 26.7923 279.284 37.76C280.067 40.2945 280.159 43.1978 279.975 45.9166C279.744 49.3267 277.442 51.0318 274.035 50.7092C272.332 50.571 270.628 50.1102 269.063 49.4189C260.361 45.5019 251.751 45.9627 243.187 49.9258C239.642 51.5848 235.912 52.829 231.953 52.9673C226.704 53.1516 223.02 49.3267 223.665 44.1194C223.849 42.4143 224.31 40.7093 225.046 39.1886C229.282 30.4328 235.866 23.9352 244.89 20.2025C247.377 19.1426 250.185 18.82 252.856 18.1748Z" fill="black"/>
<path d="M222.053 69.8335C222.697 70.3865 223.158 70.7091 223.572 71.0317C228.591 75.133 234.07 76.0547 240.009 73.428C242.542 72.322 244.844 70.8473 247.284 69.5109C249.126 68.4971 250.967 67.345 252.855 66.3773C256.492 64.5801 259.899 64.9948 263.261 67.2068C265.701 68.8197 268.279 70.2022 270.95 71.3542C273.252 72.3681 275.784 72.2298 278.224 71.6307C278.869 71.4464 279.56 71.3542 280.526 71.1238C279.928 75.0409 279.421 78.7275 278.823 82.4141C278.777 82.6906 277.994 83.1514 277.672 83.1053C276.106 82.8288 274.449 82.6445 273.068 81.9072C270.167 80.3864 267.312 78.7275 264.688 76.792C259.669 73.1054 254.835 73.0593 249.724 76.5155C246.731 78.5431 243.601 80.3865 240.332 81.9533C237.753 83.1975 234.991 84.0731 232.228 84.6261C230.755 84.9486 229.005 84.4878 227.532 83.9809C225.322 83.1975 223.848 81.7689 223.618 79.0961C223.342 76.1468 222.605 73.1515 222.053 69.8335Z" fill="black"/>
</svg>
