<svg width="77" height="18" viewBox="0 0 77 18" fill="none" xmlns="http://www.w3.org/2000/svg">
<path d="M1.184 1.608H6.384C7.57867 1.608 8.49067 1.86933 9.12 2.392C9.76 2.904 10.08 3.59733 10.08 4.472C10.08 5.016 9.93067 5.50667 9.632 5.944C9.33333 6.37067 8.93867 6.68 8.448 6.872C9.10933 7.032 9.632 7.352 10.016 7.832C10.4 8.312 10.592 8.91467 10.592 9.64C10.592 10.6427 10.256 11.4533 9.584 12.072C8.92267 12.6907 8.05867 13 6.992 13H1.184V1.608ZM3.136 3.224V6.36H5.856C6.624 6.36 7.18933 6.24267 7.552 6.008C7.91467 5.76267 8.096 5.35733 8.096 4.792C8.096 4.152 7.904 3.73067 7.52 3.528C7.14667 3.32533 6.61333 3.224 5.92 3.224H3.136ZM3.136 7.8V11.368H6.128C6.896 11.368 7.49867 11.24 7.936 10.984C8.37333 10.728 8.592 10.264 8.592 9.592C8.592 9.21867 8.52267 8.90933 8.384 8.664C8.256 8.408 8.064 8.22133 7.808 8.104C7.56267 7.98667 7.30667 7.90667 7.04 7.864C6.77333 7.82133 6.45867 7.8 6.096 7.8H3.136ZM20.1136 4.744H21.9376V13H20.1136V4.744ZM18.2416 8.44C18.7323 8.89867 18.9776 9.53867 18.9776 10.36C18.9776 11.1813 18.7323 11.8267 18.2416 12.296C17.751 12.7653 17.063 13 16.1776 13H12.1456V4.744H13.9696V7.736H16.1616C17.0576 7.736 17.751 7.97067 18.2416 8.44ZM17.1536 10.392C17.1536 10.0187 17.047 9.72 16.8336 9.496C16.6203 9.272 16.3216 9.16 15.9376 9.16H13.9696V11.576H15.9696C16.3643 11.576 16.6576 11.4693 16.8496 11.256C17.0523 11.032 17.1536 10.744 17.1536 10.392ZM30.0285 1.336C29.9432 2.104 29.6872 2.67467 29.2605 3.048C28.8338 3.41067 28.2152 3.592 27.4045 3.592C26.5938 3.592 25.9752 3.41067 25.5485 3.048C25.1218 2.67467 24.8658 2.104 24.7805 1.336H25.7085C25.9112 2.14667 26.4765 2.552 27.4045 2.552C28.3325 2.552 28.8978 2.14667 29.1005 1.336H30.0285ZM26.0765 13H23.7725V4.744H25.5965V10.76H25.6445L28.7325 4.744H31.0365V13H29.2125V6.984H29.1645L26.0765 13ZM39.344 6.184H36.624V13H34.8V6.184H32.08V4.744H39.344V6.184ZM42.6859 13H40.3819V4.744H42.2059V10.76H42.2539L45.3419 4.744H47.6459V13H45.8219V6.984H45.7739L42.6859 13Z" fill="black"/>
<path d="M65.6758 5.66999C65.9083 2.96999 67.2958 1.86749 70.3333 1.86749H70.4308C73.7833 1.86749 75.1258 3.20999 75.1258 6.56249V11.4525C75.1258 14.805 73.7833 16.1475 70.4308 16.1475H70.3333C67.3183 16.1475 65.9308 15.06 65.6833 12.405" stroke="black" stroke-width="1.5" stroke-linecap="round" stroke-linejoin="round"/>
<path d="M70.2498 9H61.7148" stroke="black" stroke-width="1.5" stroke-linecap="round" stroke-linejoin="round"/>
<path d="M63.3855 6.48749L60.873 8.99999L63.3855 11.5125" stroke="black" stroke-width="1.5" stroke-linecap="round" stroke-linejoin="round"/>
</svg>
