<svg width="24" height="24" viewBox="0 0 24 24" fill="none" xmlns="http://www.w3.org/2000/svg">
<path d="M8.39062 18.49V8.33001C8.39062 7.93001 8.51062 7.54001 8.73062 7.21001L11.4606 3.15001C11.8906 2.50001 12.9606 2.04001 13.8706 2.38001C14.8506 2.71001 15.5006 3.81001 15.2906 4.79001L14.7706 8.06001C14.7306 8.36001 14.8106 8.63001 14.9806 8.84001C15.1506 9.03001 15.4006 9.15001 15.6706 9.15001H19.7806C20.5706 9.15001 21.2506 9.47001 21.6506 10.03C22.0306 10.57 22.1006 11.27 21.8506 11.98L19.3906 19.47C19.0806 20.71 17.7306 21.72 16.3906 21.72H12.4906C11.8206 21.72 10.8806 21.49 10.4506 21.06L9.17062 20.07C8.68062 19.7 8.39062 19.11 8.39062 18.49Z" fill="black"/>
<path d="M5.21 6.38H4.18C2.63 6.38 2 6.98 2 8.46V18.52C2 20 2.63 20.6 4.18 20.6H5.21C6.76 20.6 7.39 20 7.39 18.52V8.46C7.39 6.98 6.76 6.38 5.21 6.38Z" fill="black"/>
</svg>
