<svg width="233" height="20" viewBox="0 0 233 20" fill="none" xmlns="http://www.w3.org/2000/svg">
<path d="M17.1833 7.04183C16.3083 3.19183 12.95 1.4585 10 1.4585C10 1.4585 10 1.4585 9.99167 1.4585C7.05 1.4585 3.68334 3.1835 2.80834 7.0335C1.83334 11.3335 4.46667 14.9752 6.85 17.2668C7.73334 18.1168 8.86667 18.5418 10 18.5418C11.1333 18.5418 12.2667 18.1168 13.1417 17.2668C15.525 14.9752 18.1583 11.3418 17.1833 7.04183ZM10 11.2168C8.55 11.2168 7.375 10.0418 7.375 8.59183C7.375 7.14183 8.55 5.96683 10 5.96683C11.45 5.96683 12.625 7.14183 12.625 8.59183C12.625 10.0418 11.45 11.2168 10 11.2168Z" fill="white"/>
<path d="M32.384 14H31.024V5.744H37.872V14H36.512V6.944H32.384V14ZM41.1946 5.744V6.912C41.792 5.96267 42.72 5.488 43.9786 5.488C45.1306 5.488 46.0426 5.87733 46.7146 6.656C47.3973 7.43467 47.7386 8.49067 47.7386 9.824C47.7386 11.1573 47.4026 12.224 46.7306 13.024C46.0693 13.8133 45.1733 14.208 44.0426 14.208C42.8586 14.208 41.936 13.7547 41.2746 12.848V17.184H39.9146V5.744H41.1946ZM43.7706 6.624C42.9813 6.624 42.3573 6.912 41.8986 7.488C41.4506 8.05333 41.2266 8.83733 41.2266 9.84C41.2266 10.8427 41.456 11.632 41.9146 12.208C42.384 12.7733 43.0186 13.056 43.8186 13.056C44.5973 13.056 45.2106 12.768 45.6586 12.192C46.1066 11.616 46.3306 10.832 46.3306 9.84C46.3306 8.83733 46.1013 8.05333 45.6426 7.488C45.1946 6.912 44.5706 6.624 43.7706 6.624ZM50.055 6.688C50.7803 5.89867 51.767 5.504 53.015 5.504C54.263 5.504 55.2337 5.88267 55.927 6.64C56.6203 7.39733 56.967 8.45867 56.967 9.824C56.967 11.2213 56.6203 12.3093 55.927 13.088C55.2337 13.8667 54.2577 14.256 52.999 14.256C51.7403 14.256 50.7537 13.872 50.039 13.104C49.3243 12.336 48.967 11.2693 48.967 9.904C48.967 8.54933 49.3297 7.47733 50.055 6.688ZM54.871 7.52C54.4123 6.93333 53.783 6.64 52.983 6.64C52.183 6.64 51.5483 6.93333 51.079 7.52C50.6097 8.10667 50.375 8.89067 50.375 9.872C50.375 10.8853 50.6043 11.68 51.063 12.256C51.5323 12.8213 52.183 13.104 53.015 13.104C53.815 13.104 54.439 12.816 54.887 12.24C55.3457 11.664 55.575 10.8693 55.575 9.856C55.575 8.87467 55.3403 8.096 54.871 7.52ZM65.6905 10.992C65.5732 11.984 65.1945 12.7733 64.5545 13.36C63.9252 13.9467 63.1038 14.24 62.0905 14.24C60.8425 14.24 59.8772 13.856 59.1945 13.088C58.5118 12.3093 58.1705 11.2747 58.1705 9.984C58.1705 8.608 58.5278 7.52 59.2425 6.72C59.9572 5.90933 60.9225 5.504 62.1385 5.504C63.1518 5.504 63.9625 5.76 64.5705 6.272C65.1785 6.77333 65.5358 7.49333 65.6425 8.432H64.2345C63.9892 7.23733 63.2958 6.64 62.1545 6.64C61.3652 6.64 60.7412 6.93333 60.2825 7.52C59.8238 8.096 59.5945 8.88 59.5945 9.872C59.5945 10.8747 59.8132 11.664 60.2505 12.24C60.6878 12.816 61.2905 13.104 62.0585 13.104C62.6772 13.104 63.1785 12.9227 63.5625 12.56C63.9572 12.1973 64.2078 11.6747 64.3145 10.992H65.6905ZM68.5403 14H67.1803V5.744H74.0283V14H72.6683V6.944H68.5403V14ZM83.1269 11.392C82.7109 13.312 81.5109 14.272 79.5269 14.272C78.3109 14.272 77.3562 13.8933 76.6629 13.136C75.9802 12.3787 75.6389 11.328 75.6389 9.984C75.6389 8.65067 75.9909 7.57333 76.6949 6.752C77.4095 5.92 78.3375 5.504 79.4789 5.504C80.7482 5.504 81.6869 5.936 82.2949 6.8C82.9135 7.65333 83.2229 8.736 83.2229 10.048V10.24H77.0149L76.9989 10.336C76.9989 11.2107 77.2282 11.8987 77.6869 12.4C78.1455 12.9013 78.7749 13.152 79.5749 13.152C80.1722 13.152 80.6415 13.0133 80.9829 12.736C81.3349 12.4587 81.6069 12.0107 81.7989 11.392H83.1269ZM81.8149 9.136C81.7509 8.34667 81.5109 7.73333 81.0949 7.296C80.6789 6.848 80.1295 6.624 79.4469 6.624C78.7855 6.624 78.2362 6.848 77.7989 7.296C77.3615 7.744 77.1002 8.35733 77.0149 9.136H81.8149ZM92.0566 14H90.3286L87.3206 9.936L86.0246 11.2V14H84.6646V5.744H86.0246V9.68L89.8006 5.744H91.6246L88.2966 8.992L92.0566 14ZM99.2815 6.944H96.3215V14H94.9615V6.944H92.0015V5.744H99.2815V6.944ZM109.845 2.608L114.293 14H112.613L111.349 10.512H106.565L105.269 14H103.669L108.149 2.608H109.845ZM110.901 9.312L108.965 4.048L106.997 9.312H110.901ZM124.14 14H122.78V7.488H122.732L120.284 14H119.036L116.588 7.488H116.54V14H115.18V5.744H117.132L119.644 12.432H119.676L122.188 5.744H124.14V14ZM127.893 14H126.149V5.744H127.509V12.48H127.541L131.253 5.744H132.997V14H131.637V7.264H131.605L127.893 14ZM136.32 5.744V6.912C136.917 5.96267 137.845 5.488 139.104 5.488C140.256 5.488 141.168 5.87733 141.84 6.656C142.522 7.43467 142.864 8.49067 142.864 9.824C142.864 11.1573 142.528 12.224 141.856 13.024C141.194 13.8133 140.298 14.208 139.168 14.208C137.984 14.208 137.061 13.7547 136.4 12.848V17.184H135.04V5.744H136.32ZM138.896 6.624C138.106 6.624 137.482 6.912 137.024 7.488C136.576 8.05333 136.352 8.83733 136.352 9.84C136.352 10.8427 136.581 11.632 137.04 12.208C137.509 12.7733 138.144 13.056 138.944 13.056C139.722 13.056 140.336 12.768 140.784 12.192C141.232 11.616 141.456 10.832 141.456 9.84C141.456 8.83733 141.226 8.05333 140.768 7.488C140.32 6.912 139.696 6.624 138.896 6.624ZM151.836 12.912V13.968C151.559 14.0747 151.249 14.128 150.908 14.128C150.129 14.128 149.729 13.7227 149.708 12.912C148.929 13.7867 147.932 14.224 146.716 14.224C145.905 14.224 145.26 14.016 144.78 13.6C144.311 13.184 144.076 12.6133 144.076 11.888C144.076 10.416 145.052 9.55733 147.004 9.312C147.132 9.29067 147.319 9.26933 147.564 9.248C148.492 9.14133 149.063 9.01867 149.276 8.88C149.521 8.70933 149.644 8.416 149.644 8C149.644 7.09333 149.02 6.64 147.772 6.64C147.132 6.64 146.647 6.77333 146.316 7.04C145.985 7.296 145.788 7.72267 145.724 8.32H144.396C144.417 7.43467 144.732 6.74667 145.34 6.256C145.948 5.76533 146.785 5.52 147.852 5.52C149.015 5.52 149.879 5.78667 150.444 6.32C150.625 6.49067 150.759 6.71467 150.844 6.992C150.929 7.26933 150.977 7.49867 150.988 7.68C150.999 7.85067 151.004 8.112 151.004 8.464C151.004 8.86933 150.993 9.48267 150.972 10.304C150.951 11.1253 150.94 11.7387 150.94 12.144C150.94 12.4427 150.977 12.656 151.052 12.784C151.137 12.9013 151.287 12.96 151.5 12.96C151.585 12.96 151.697 12.944 151.836 12.912ZM149.644 9.712C149.548 9.78667 149.447 9.85067 149.34 9.904C149.233 9.95733 149.095 10 148.924 10.032C148.764 10.064 148.652 10.0907 148.588 10.112C148.535 10.1227 148.396 10.144 148.172 10.176C147.948 10.1973 147.831 10.208 147.82 10.208C147.489 10.2507 147.271 10.2827 147.164 10.304C147.068 10.3147 146.876 10.3573 146.588 10.432C146.311 10.5067 146.113 10.592 145.996 10.688C145.879 10.784 145.761 10.928 145.644 11.12C145.537 11.3013 145.484 11.52 145.484 11.776C145.484 12.2027 145.628 12.5387 145.916 12.784C146.215 13.0293 146.62 13.152 147.132 13.152C147.783 13.152 148.364 12.96 148.876 12.576C149.388 12.192 149.644 11.7387 149.644 11.216V9.712ZM165.715 2.608V3.92H161.891V14H160.387V3.92H156.563V2.608H165.715ZM167.034 14H165.29V5.744H166.65V12.48H166.682L170.394 5.744H172.138V14H170.778V7.264H170.746L167.034 14ZM183.124 14H181.764V7.488H181.716L179.268 14H178.02L175.572 7.488H175.524V14H174.164V5.744H176.116L178.628 12.432H178.66L181.172 5.744H183.124V14ZM191.965 5.744L188.429 15.056C188.291 15.4293 188.168 15.7173 188.061 15.92C187.965 16.1333 187.821 16.3627 187.629 16.608C187.448 16.864 187.224 17.0453 186.957 17.152C186.701 17.2693 186.397 17.328 186.045 17.328C185.779 17.328 185.443 17.28 185.037 17.184V15.968C185.432 16.0853 185.725 16.144 185.917 16.144C186.365 16.144 186.685 15.9147 186.877 15.456L187.517 13.952L184.237 5.744H185.773L188.221 12.32L190.541 5.744H191.965ZM194.413 5.744V6.912C195.011 5.96267 195.939 5.488 197.197 5.488C198.349 5.488 199.261 5.87733 199.933 6.656C200.616 7.43467 200.957 8.49067 200.957 9.824C200.957 11.1573 200.621 12.224 199.949 13.024C199.288 13.8133 198.392 14.208 197.261 14.208C196.077 14.208 195.155 13.7547 194.493 12.848V17.184H193.133V5.744H194.413ZM196.989 6.624C196.2 6.624 195.576 6.912 195.117 7.488C194.669 8.05333 194.445 8.83733 194.445 9.84C194.445 10.8427 194.675 11.632 195.133 12.208C195.603 12.7733 196.237 13.056 197.037 13.056C197.816 13.056 198.429 12.768 198.877 12.192C199.325 11.616 199.549 10.832 199.549 9.84C199.549 8.83733 199.32 8.05333 198.861 7.488C198.413 6.912 197.789 6.624 196.989 6.624ZM209.93 12.912V13.968C209.652 14.0747 209.343 14.128 209.002 14.128C208.223 14.128 207.823 13.7227 207.802 12.912C207.023 13.7867 206.026 14.224 204.81 14.224C203.999 14.224 203.354 14.016 202.874 13.6C202.404 13.184 202.17 12.6133 202.17 11.888C202.17 10.416 203.146 9.55733 205.098 9.312C205.226 9.29067 205.412 9.26933 205.658 9.248C206.586 9.14133 207.156 9.01867 207.37 8.88C207.615 8.70933 207.738 8.416 207.738 8C207.738 7.09333 207.114 6.64 205.866 6.64C205.226 6.64 204.74 6.77333 204.41 7.04C204.079 7.296 203.882 7.72267 203.818 8.32H202.49C202.511 7.43467 202.826 6.74667 203.434 6.256C204.042 5.76533 204.879 5.52 205.946 5.52C207.108 5.52 207.972 5.78667 208.538 6.32C208.719 6.49067 208.852 6.71467 208.938 6.992C209.023 7.26933 209.071 7.49867 209.082 7.68C209.092 7.85067 209.098 8.112 209.098 8.464C209.098 8.86933 209.087 9.48267 209.066 10.304C209.044 11.1253 209.034 11.7387 209.034 12.144C209.034 12.4427 209.071 12.656 209.146 12.784C209.231 12.9013 209.38 12.96 209.594 12.96C209.679 12.96 209.791 12.944 209.93 12.912ZM207.738 9.712C207.642 9.78667 207.54 9.85067 207.434 9.904C207.327 9.95733 207.188 10 207.018 10.032C206.858 10.064 206.746 10.0907 206.682 10.112C206.628 10.1227 206.49 10.144 206.266 10.176C206.042 10.1973 205.924 10.208 205.914 10.208C205.583 10.2507 205.364 10.2827 205.258 10.304C205.162 10.3147 204.97 10.3573 204.682 10.432C204.404 10.5067 204.207 10.592 204.09 10.688C203.972 10.784 203.855 10.928 203.738 11.12C203.631 11.3013 203.578 11.52 203.578 11.776C203.578 12.2027 203.722 12.5387 204.01 12.784C204.308 13.0293 204.714 13.152 205.226 13.152C205.876 13.152 206.458 12.96 206.97 12.576C207.482 12.192 207.738 11.7387 207.738 11.216V9.712ZM222.641 5.6H221.249C221.174 5.056 220.971 4.62933 220.641 4.32C220.321 4 219.883 3.84 219.329 3.84C218.945 3.84 218.598 3.90933 218.289 4.048C217.99 4.18667 217.745 4.38933 217.553 4.656C217.371 4.912 217.217 5.17333 217.089 5.44C216.961 5.70667 216.865 6.032 216.801 6.416C216.737 6.8 216.694 7.11467 216.673 7.36C216.651 7.59467 216.63 7.88267 216.609 8.224C217.227 7.232 218.166 6.736 219.425 6.736C220.481 6.736 221.329 7.072 221.969 7.744C222.619 8.40533 222.945 9.28 222.945 10.368C222.945 11.488 222.603 12.4107 221.921 13.136C221.249 13.8613 220.347 14.224 219.217 14.224C216.582 14.224 215.265 12.3467 215.265 8.592C215.265 8.00533 215.297 7.45067 215.361 6.928C215.435 6.40533 215.563 5.87733 215.745 5.344C215.937 4.8 216.182 4.336 216.481 3.952C216.779 3.568 217.174 3.25867 217.665 3.024C218.166 2.77867 218.737 2.656 219.377 2.656C220.326 2.656 221.089 2.91733 221.665 3.44C222.241 3.952 222.566 4.672 222.641 5.6ZM219.185 7.92C218.491 7.92 217.931 8.15467 217.505 8.624C217.078 9.08267 216.865 9.68533 216.865 10.432C216.865 11.2107 217.078 11.8347 217.505 12.304C217.942 12.7733 218.513 13.008 219.217 13.008C219.899 13.008 220.449 12.784 220.865 12.336C221.291 11.8773 221.505 11.264 221.505 10.496C221.505 9.70667 221.297 9.08267 220.881 8.624C220.465 8.15467 219.899 7.92 219.185 7.92ZM227.963 2.656C228.646 2.656 229.227 2.784 229.707 3.04C230.198 3.28533 230.571 3.58933 230.827 3.952C231.083 4.31467 231.286 4.78933 231.435 5.376C231.585 5.952 231.675 6.47467 231.707 6.944C231.739 7.40267 231.755 7.95733 231.755 8.608C231.755 9.20533 231.729 9.744 231.675 10.224C231.633 10.704 231.531 11.2053 231.371 11.728C231.222 12.2507 231.014 12.688 230.747 13.04C230.481 13.3813 230.118 13.664 229.659 13.888C229.201 14.112 228.657 14.224 228.027 14.224C227.366 14.224 226.79 14.112 226.299 13.888C225.819 13.6533 225.446 13.3653 225.179 13.024C224.913 12.6827 224.699 12.2507 224.539 11.728C224.39 11.1947 224.294 10.6933 224.251 10.224C224.209 9.744 224.187 9.19467 224.187 8.576C224.187 8.04267 224.198 7.57867 224.219 7.184C224.251 6.78933 224.305 6.34667 224.379 5.856C224.465 5.35467 224.593 4.93333 224.763 4.592C224.934 4.24 225.153 3.90933 225.419 3.6C225.686 3.29067 226.033 3.056 226.459 2.896C226.897 2.736 227.398 2.656 227.963 2.656ZM228.843 4.064C228.587 3.936 228.294 3.872 227.963 3.872C227.633 3.872 227.339 3.936 227.083 4.064C226.827 4.18133 226.619 4.32 226.459 4.48C226.299 4.64 226.161 4.88 226.043 5.2C225.926 5.50933 225.841 5.77067 225.787 5.984C225.745 6.19733 225.707 6.50667 225.675 6.912C225.643 7.30667 225.627 7.58933 225.627 7.76C225.627 7.92 225.627 8.192 225.627 8.576C225.627 8.94933 225.633 9.25867 225.643 9.504C225.654 9.74933 225.681 10.0693 225.723 10.464C225.766 10.8587 225.841 11.1893 225.947 11.456C226.054 11.712 226.187 11.9733 226.347 12.24C226.507 12.496 226.726 12.6933 227.003 12.832C227.291 12.96 227.622 13.024 227.995 13.024C228.315 13.024 228.598 12.9653 228.843 12.848C229.099 12.7307 229.307 12.592 229.467 12.432C229.627 12.272 229.761 12.048 229.867 11.76C229.985 11.4613 230.07 11.2053 230.123 10.992C230.177 10.768 230.214 10.4747 230.235 10.112C230.267 9.73867 230.283 9.46667 230.283 9.296C230.294 9.11467 230.299 8.85333 230.299 8.512C230.299 8.13867 230.299 7.872 230.299 7.712C230.299 7.552 230.283 7.27467 230.251 6.88C230.219 6.48533 230.177 6.18133 230.123 5.968C230.081 5.75467 230.001 5.49333 229.883 5.184C229.766 4.87467 229.627 4.64 229.467 4.48C229.307 4.32 229.099 4.18133 228.843 4.064Z" fill="white"/>
</svg>
