<svg width="162" height="109" viewBox="0 0 162 109" fill="none" xmlns="http://www.w3.org/2000/svg">
<path d="M137.435 20.3855L115.217 49.1924L133.905 74.8043H162L140.198 48.9231C150.535 44.9927 156.605 36.3643 156.605 25.8812C156.605 17.5823 154.132 11.2467 149.076 6.77172C144.017 2.29475 137.388 0 129.296 0H77.862L93.0965 20.3332L137.435 20.3855Z" fill="white"/>
<path d="M119.93 28.0634H85.6561L68.8768 4.88488L60.1357 28.5115H22.1394V18.3459H52.4161L59.5753 2.29959e-06H0.00012207V74.8043H22.1394V49.532H53.9071L42.277 82.627L76.6812 63.3949L146.412 108.844L102.21 50.2192L119.93 28.0634Z" fill="white"/>
</svg>
