<svg width="262" height="50" viewBox="0 0 262 50" fill="none" xmlns="http://www.w3.org/2000/svg">
<path d="M86.26 22.5802H96.9475V16.6632H86.26V13.4544H98.0306V7.46365H79.1475V31.8852H98.1027V25.897H86.26V22.5802Z" fill="black"/>
<path d="M108.651 22.5802H119.338V16.6632H108.651V13.4544H120.421V7.46365H101.538V31.8852H120.493V25.897H108.651V22.5802Z" fill="black"/>
<path d="M140.828 18.8024C140.324 18.4099 139.673 18.1254 138.878 17.8751C138.049 17.5906 137.398 17.3772 136.928 17.2692C136.459 17.1269 135.81 16.9478 134.906 16.7686C133.353 16.4472 132.777 16.3049 131.8 15.9124C130.827 15.4856 130.464 14.9508 130.464 14.2369C130.464 13.3464 131.331 12.6325 132.956 12.6325C135.447 12.6325 136.133 13.8443 136.24 15.4487H143.171C142.773 10.1377 139.126 7 133.062 7C130.138 7 127.828 7.71394 126.056 9.17344C124.322 10.6356 123.458 12.5614 123.458 14.9482C123.458 17.7644 124.685 19.8694 127.105 21.2235C128.225 21.8294 130.173 22.4722 132.953 23.1493C135.445 23.721 136.6 24.2189 136.6 25.2174C136.6 26.3238 135.661 26.856 133.748 26.856C131.544 26.856 130.354 25.9287 130.21 24.1109H123.17C123.567 29.422 127.105 32.3462 133.569 32.3462C136.819 32.3462 139.31 31.6323 141.079 30.1702C142.848 28.708 143.752 26.7822 143.752 24.4665C143.934 21.6529 142.309 19.872 140.828 18.8024Z" fill="black"/>
<path d="M145.204 13.6678H152.063V31.8852H159.176V13.6678H166.035V7.46365H145.204V13.6678Z" fill="black"/>
<path d="M176.223 22.5802H186.91V16.6632H176.223V13.4544H187.994V7.46365H169.11V31.8852H188.066V25.897H176.223V22.5802Z" fill="black"/>
<path d="M211.468 15.915C211.468 13.2041 210.673 11.136 209.049 9.67655C207.424 8.21442 205.295 7.46623 202.694 7.46623H191.502V31.8878H198.615V24.3637L204.174 31.8851H213.2L206.197 23.4364C209.518 22.1534 211.468 19.3372 211.468 15.915ZM201 18.6943H198.617V13.6678H201C203.129 13.6678 204.212 14.524 204.212 16.2337C204.212 17.875 203.129 18.6943 201 18.6943Z" fill="black"/>
<path d="M229.997 23.4364C233.319 22.1534 235.269 19.3372 235.269 15.915C235.269 13.2041 234.474 11.136 232.849 9.67655C231.225 8.21442 229.096 7.46623 226.494 7.46623H215.303V31.8878H222.415V24.3637L227.975 31.8851H237.001L229.997 23.4364ZM224.8 18.6943H222.418V13.6678H224.8C226.929 13.6678 228.012 14.524 228.012 16.2337C228.012 17.875 226.929 18.6943 224.8 18.6943Z" fill="black"/>
<path d="M75.314 15.915C75.314 13.2041 74.519 11.136 72.8943 9.67655C71.2696 8.21442 69.1406 7.46623 66.5394 7.46623H50.0146L54.9075 14.1051L69.1513 14.1235L62.0121 23.5286L68.0148 31.8904H77.0402L70.037 23.4417C73.3638 22.1534 75.314 19.3372 75.314 15.915Z" fill="black"/>
<path d="M63.5294 16.6263H52.5191L47.1273 9.05751L44.3207 16.7712H32.1125V13.4544H41.8396L44.1393 7.46365H25V31.8852H32.1125V25.897V23.634H42.3198L38.5821 34.4406L49.6351 28.1627L72.0372 43L57.8361 23.8606L63.5294 16.6263Z" fill="black"/>
</svg>
