<svg width="18" height="18" viewBox="0 0 18 18" fill="none" xmlns="http://www.w3.org/2000/svg">
<path d="M1.55745 17.4001C1.31246 17.4001 1.06747 17.3063 0.879896 17.1207C0.506669 16.7475 0.506669 16.1408 0.879896 15.7676L15.7669 0.881908C16.1401 0.508713 16.7468 0.508713 17.1201 0.881908C17.4933 1.2551 17.4933 1.86178 17.1201 2.23498L2.23308 17.1207C2.04743 17.3063 1.80244 17.4001 1.55745 17.4001Z" fill="black"/>
<path d="M16.4444 17.4001C16.1994 17.4001 15.9544 17.3063 15.7669 17.1207L0.879896 2.23307C0.506669 1.85987 0.506669 1.25319 0.879896 0.879994C1.25312 0.506799 1.85986 0.506799 2.23308 0.879994L17.1201 15.7657C17.4933 16.1389 17.4933 16.7456 17.1201 17.1188C16.9344 17.3063 16.6894 17.4001 16.4444 17.4001Z" fill="black"/>
</svg>
