<svg width="123" height="24" viewBox="0 0 123 24" fill="none" xmlns="http://www.w3.org/2000/svg">
<path d="M44.384 4.608V16H42.384V10.88H37.168V16H35.168V4.608H37.168V9.136H42.384V4.608H44.384ZM46.4269 10.288C46.6189 8.42133 47.8242 7.488 50.0429 7.488C51.0775 7.488 51.8989 7.69067 52.5069 8.096C53.1255 8.50133 53.4349 9.13067 53.4349 9.984V14.176C53.4349 14.4107 53.4615 14.5707 53.5149 14.656C53.5789 14.7413 53.6962 14.784 53.8669 14.784C53.9949 14.784 54.1335 14.7733 54.2829 14.752V16.032C53.8135 16.1493 53.4189 16.208 53.0989 16.208C52.3202 16.208 51.8722 15.8773 51.7549 15.216C51.0615 15.8773 50.0962 16.208 48.8589 16.208C48.0055 16.208 47.3282 15.9893 46.8269 15.552C46.3255 15.104 46.0749 14.5013 46.0749 13.744C46.0749 13.5093 46.1015 13.2907 46.1549 13.088C46.2082 12.8853 46.2669 12.7093 46.3309 12.56C46.4055 12.4107 46.5175 12.272 46.6669 12.144C46.8269 12.016 46.9549 11.9093 47.0509 11.824C47.1575 11.7387 47.3229 11.6587 47.5469 11.584C47.7815 11.5093 47.9522 11.456 48.0589 11.424C48.1762 11.3813 48.3735 11.3387 48.6509 11.296C48.9282 11.2533 49.1095 11.2267 49.1949 11.216C49.2909 11.1947 49.4829 11.168 49.7709 11.136C50.4215 11.0507 50.8642 10.9813 51.0989 10.928C51.3335 10.864 51.4935 10.7733 51.5789 10.656C51.6535 10.5707 51.6909 10.3733 51.6909 10.064C51.6909 9.232 51.1255 8.816 49.9949 8.816C49.3975 8.816 48.9602 8.928 48.6829 9.152C48.4055 9.376 48.2295 9.75467 48.1549 10.288H46.4269ZM51.6749 11.856C51.5362 11.9307 51.3762 12 51.1949 12.064C51.0135 12.1173 50.8642 12.1547 50.7469 12.176C50.6402 12.1867 50.4642 12.208 50.2189 12.24C49.9842 12.272 49.8295 12.2933 49.7549 12.304C49.5309 12.336 49.3549 12.368 49.2269 12.4C49.0989 12.4213 48.9389 12.464 48.7469 12.528C48.5655 12.592 48.4215 12.672 48.3149 12.768C48.2189 12.8533 48.1335 12.976 48.0589 13.136C47.9842 13.2853 47.9469 13.4667 47.9469 13.68C47.9469 14.0747 48.0749 14.3787 48.3309 14.592C48.5975 14.8053 48.9655 14.912 49.4349 14.912C50.2455 14.912 50.8695 14.6933 51.3069 14.256C51.5522 14.0107 51.6749 13.536 51.6749 12.832V11.856ZM65.6266 9.184H61.6746V16H59.8506V7.744H65.6266V9.184ZM73.0841 16H71.2601V9.184H68.7321L68.6201 12.8C68.5881 13.8773 68.3535 14.7147 67.9161 15.312C67.4895 15.8987 66.9028 16.192 66.1561 16.192C65.6975 16.192 65.3241 16.1333 65.0361 16.016V14.592C65.1428 14.6453 65.3615 14.672 65.6921 14.672C66.4175 14.672 66.8015 13.9893 66.8441 12.624L66.9881 7.744H73.0841V16ZM74.8956 10.288C75.0876 8.42133 76.293 7.488 78.5116 7.488C79.5463 7.488 80.3676 7.69067 80.9756 8.096C81.5943 8.50133 81.9036 9.13067 81.9036 9.984V14.176C81.9036 14.4107 81.9303 14.5707 81.9836 14.656C82.0476 14.7413 82.165 14.784 82.3356 14.784C82.4636 14.784 82.6023 14.7733 82.7516 14.752V16.032C82.2823 16.1493 81.8876 16.208 81.5676 16.208C80.789 16.208 80.341 15.8773 80.2236 15.216C79.5303 15.8773 78.565 16.208 77.3276 16.208C76.4743 16.208 75.797 15.9893 75.2956 15.552C74.7943 15.104 74.5436 14.5013 74.5436 13.744C74.5436 13.5093 74.5703 13.2907 74.6236 13.088C74.677 12.8853 74.7356 12.7093 74.7996 12.56C74.8743 12.4107 74.9863 12.272 75.1356 12.144C75.2956 12.016 75.4236 11.9093 75.5196 11.824C75.6263 11.7387 75.7916 11.6587 76.0156 11.584C76.2503 11.5093 76.421 11.456 76.5276 11.424C76.645 11.3813 76.8423 11.3387 77.1196 11.296C77.397 11.2533 77.5783 11.2267 77.6636 11.216C77.7596 11.1947 77.9516 11.168 78.2396 11.136C78.8903 11.0507 79.333 10.9813 79.5676 10.928C79.8023 10.864 79.9623 10.7733 80.0476 10.656C80.1223 10.5707 80.1596 10.3733 80.1596 10.064C80.1596 9.232 79.5943 8.816 78.4636 8.816C77.8663 8.816 77.429 8.928 77.1516 9.152C76.8743 9.376 76.6983 9.75467 76.6236 10.288H74.8956ZM80.1436 11.856C80.005 11.9307 79.845 12 79.6636 12.064C79.4823 12.1173 79.333 12.1547 79.2156 12.176C79.109 12.1867 78.933 12.208 78.6876 12.24C78.453 12.272 78.2983 12.2933 78.2236 12.304C77.9996 12.336 77.8236 12.368 77.6956 12.4C77.5676 12.4213 77.4076 12.464 77.2156 12.528C77.0343 12.592 76.8903 12.672 76.7836 12.768C76.6876 12.8533 76.6023 12.976 76.5276 13.136C76.453 13.2853 76.4156 13.4667 76.4156 13.68C76.4156 14.0747 76.5436 14.3787 76.7996 14.592C77.0663 14.8053 77.4343 14.912 77.9036 14.912C78.7143 14.912 79.3383 14.6933 79.7756 14.256C80.021 14.0107 80.1436 13.536 80.1436 12.832V11.856ZM91.2423 13.664C91.2423 14.4107 90.9756 14.9867 90.4423 15.392C89.9196 15.7973 89.1729 16 88.2023 16H83.8663V7.744H88.4263C89.1943 7.744 89.7916 7.92 90.2183 8.272C90.6556 8.624 90.8743 9.12 90.8743 9.76C90.8743 10.1973 90.7783 10.5493 90.5863 10.816C90.3943 11.0827 90.0956 11.312 89.6903 11.504V11.536C90.7249 11.8027 91.2423 12.512 91.2423 13.664ZM88.2023 12.352H85.6903V14.624H88.2023C89.0236 14.624 89.4343 14.2507 89.4343 13.504C89.4343 13.1413 89.3276 12.8587 89.1143 12.656C88.9009 12.4533 88.5969 12.352 88.2023 12.352ZM87.9623 9.12H85.6903V11.024H88.0103C88.7143 11.024 89.0663 10.6933 89.0663 10.032C89.0663 9.424 88.6983 9.12 87.9623 9.12ZM94.5809 16H92.7569V7.744H94.5809V10.976H98.1969V7.744H100.021V16H98.1969V12.416H94.5809V16ZM109.224 7.744L106.168 15.84C106.136 15.9147 106.078 16.0693 105.992 16.304C105.907 16.5493 105.848 16.7147 105.816 16.8C105.784 16.8853 105.72 17.0347 105.624 17.248C105.539 17.4613 105.47 17.6107 105.416 17.696C105.363 17.7813 105.283 17.9093 105.176 18.08C105.07 18.2507 104.968 18.3733 104.872 18.448C104.787 18.5227 104.675 18.6133 104.536 18.72C104.408 18.8373 104.275 18.9173 104.136 18.96C103.998 19.0133 103.838 19.056 103.656 19.088C103.486 19.1307 103.299 19.152 103.096 19.152C102.755 19.152 102.334 19.12 101.832 19.056V17.52C102.216 17.5947 102.536 17.632 102.792 17.632C102.92 17.632 103.038 17.6107 103.144 17.568C103.251 17.536 103.347 17.472 103.432 17.376C103.518 17.2907 103.592 17.2053 103.656 17.12C103.72 17.0453 103.779 16.9333 103.832 16.784C103.896 16.6453 103.944 16.5333 103.976 16.448C104.008 16.3733 104.051 16.2507 104.104 16.08C104.158 15.9093 104.19 15.8027 104.2 15.76L101.032 7.744H103.032L105.24 13.824L107.32 7.744H109.224ZM117.569 7.504C118.785 7.504 119.751 7.89867 120.465 8.688C121.18 9.47733 121.537 10.5387 121.537 11.872C121.537 13.216 121.18 14.2827 120.465 15.072C119.751 15.8613 118.785 16.256 117.569 16.256C116.417 16.256 115.479 15.9093 114.753 15.216C114.039 14.5227 113.639 13.5787 113.553 12.384H112.065V16H110.241V7.744H112.065V11.008H113.585C113.735 9.92 114.161 9.06667 114.865 8.448C115.58 7.81867 116.481 7.504 117.569 7.504ZM119.121 9.728C118.748 9.20533 118.22 8.944 117.537 8.944C116.855 8.944 116.321 9.20533 115.937 9.728C115.553 10.2507 115.361 10.9653 115.361 11.872C115.361 12.8 115.553 13.5253 115.937 14.048C116.321 14.5707 116.86 14.832 117.553 14.832C118.225 14.832 118.748 14.5707 119.121 14.048C119.505 13.5147 119.697 12.784 119.697 11.856C119.697 10.9493 119.505 10.24 119.121 9.728Z" fill="black"/>
<path d="M9.57031 18.07L3.50031 12L9.57031 5.93001" stroke="black" stroke-width="1.5" stroke-miterlimit="10" stroke-linecap="round" stroke-linejoin="round"/>
<path d="M20.5 12H3.67" stroke="black" stroke-width="1.5" stroke-miterlimit="10" stroke-linecap="round" stroke-linejoin="round"/>
</svg>
