<svg width="100" height="67" viewBox="0 0 100 67" fill="none" xmlns="http://www.w3.org/2000/svg">
<path d="M84.8364 12.5485L71.1217 30.2809L82.6574 46.0467H100L86.5418 30.1152C92.9231 27.6958 96.6696 22.3845 96.6696 15.9315C96.6696 10.823 95.1429 6.92302 92.0219 4.16841C88.8995 1.41256 84.8071 0 79.8121 0H48.0629L57.4669 12.5163L84.8364 12.5485Z" fill="#111111"/>
<path d="M74.0308 17.2748H52.874L42.5165 3.00694L37.1207 17.5506H13.6662V11.293H32.3555L36.7748 1.41554e-06H0V46.0466H13.6662V30.49H33.2759L26.0968 50.862L47.334 39.0234L90.3777 67L63.0925 30.913L74.0308 17.2748Z" fill="#111111"/>
</svg>
