<svg width="170" height="24" viewBox="0 0 170 24" fill="none" xmlns="http://www.w3.org/2000/svg">
<path d="M10.7903 4.608V16H8.79025V6.336H3.57425V16H1.57425V4.608H10.7903ZM20.3051 13.424C20.1025 14.32 19.6598 15.0187 18.9771 15.52C18.3051 16.0213 17.4998 16.272 16.5611 16.272C15.3131 16.272 14.3211 15.872 13.5851 15.072C12.8598 14.2613 12.4971 13.2267 12.4971 11.968C12.4971 10.6773 12.8705 9.61067 13.6171 8.768C14.3745 7.92533 15.3345 7.504 16.4971 7.504C17.7025 7.504 18.6571 7.92 19.3611 8.752C20.0651 9.57333 20.4171 10.6987 20.4171 12.128V12.32H14.3211C14.3425 13.152 14.5505 13.7973 14.9451 14.256C15.3398 14.704 15.8891 14.928 16.5931 14.928C17.0945 14.928 17.4998 14.8107 17.8091 14.576C18.1291 14.3307 18.3798 13.9467 18.5611 13.424H20.3051ZM18.5931 11.104C18.5398 10.4107 18.3211 9.86667 17.9371 9.472C17.5638 9.06667 17.0785 8.864 16.4811 8.864C15.8838 8.864 15.3985 9.056 15.0251 9.44C14.6625 9.824 14.4385 10.3787 14.3531 11.104H18.5931ZM23.5478 7.744V8.848C24.1024 7.952 24.9984 7.504 26.2358 7.504C27.3771 7.504 28.2891 7.904 28.9718 8.704C29.6544 9.504 29.9958 10.5707 29.9958 11.904C29.9958 13.2053 29.6598 14.2507 28.9878 15.04C28.3264 15.8187 27.4411 16.208 26.3318 16.208C25.1584 16.208 24.2624 15.776 23.6438 14.912V19.056H21.8358V7.744H23.5478ZM25.8678 8.976C25.1531 8.976 24.5931 9.232 24.1878 9.744C23.7824 10.256 23.5798 10.9653 23.5798 11.872C23.5798 12.768 23.7824 13.472 24.1878 13.984C24.6038 14.496 25.1744 14.752 25.8998 14.752C26.5931 14.752 27.1424 14.496 27.5478 13.984C27.9531 13.472 28.1558 12.7787 28.1558 11.904C28.1558 11.008 27.9478 10.2987 27.5318 9.776C27.1264 9.24267 26.5718 8.976 25.8678 8.976ZM38.977 13.424C38.7743 14.32 38.3317 15.0187 37.649 15.52C36.977 16.0213 36.1717 16.272 35.233 16.272C33.985 16.272 32.993 15.872 32.257 15.072C31.5317 14.2613 31.169 13.2267 31.169 11.968C31.169 10.6773 31.5423 9.61067 32.289 8.768C33.0463 7.92533 34.0063 7.504 35.169 7.504C36.3743 7.504 37.329 7.92 38.033 8.752C38.737 9.57333 39.089 10.6987 39.089 12.128V12.32H32.993C33.0143 13.152 33.2223 13.7973 33.617 14.256C34.0117 14.704 34.561 14.928 35.265 14.928C35.7663 14.928 36.1717 14.8107 36.481 14.576C36.801 14.3307 37.0517 13.9467 37.233 13.424H38.977ZM37.265 11.104C37.2117 10.4107 36.993 9.86667 36.609 9.472C36.2357 9.06667 35.7503 8.864 35.153 8.864C34.5557 8.864 34.0703 9.056 33.697 9.44C33.3343 9.824 33.1103 10.3787 33.025 11.104H37.265ZM46.7316 4.336C46.6463 5.104 46.3903 5.67467 45.9636 6.048C45.537 6.41067 44.9183 6.592 44.1076 6.592C43.297 6.592 42.6783 6.41067 42.2516 6.048C41.825 5.67467 41.569 5.104 41.4836 4.336H42.4116C42.6143 5.14667 43.1796 5.552 44.1076 5.552C45.0356 5.552 45.601 5.14667 45.8036 4.336H46.7316ZM42.7796 16H40.4756V7.744H42.2996V13.76H42.3476L45.4356 7.744H47.7396V16H45.9156V9.984H45.8676L42.7796 16ZM56.0471 9.184H53.3271V16H51.5031V9.184H48.7831V7.744H56.0471V9.184ZM59.389 16H57.085V7.744H58.909V13.76H58.957L62.045 7.744H64.349V16H62.525V9.984H62.477L59.389 16ZM78.4376 16H76.2296L73.6376 12.304L72.5496 13.44V16H70.7256V7.744H72.5496V11.408L75.8456 7.744H78.0696L74.8536 11.056L78.4376 16ZM87.5965 7.504C88.8552 7.504 89.8578 7.89867 90.6045 8.688C91.3512 9.47733 91.7245 10.5387 91.7245 11.872C91.7245 13.216 91.3512 14.2827 90.6045 15.072C89.8685 15.8613 88.8658 16.256 87.5965 16.256C86.3058 16.256 85.2818 15.8613 84.5245 15.072C83.7672 14.2827 83.3885 13.216 83.3885 11.872C83.3885 10.5387 83.7672 9.47733 84.5245 8.688C85.2925 7.89867 86.3165 7.504 87.5965 7.504ZM89.2605 9.728C88.8552 9.20533 88.2898 8.944 87.5645 8.944C86.8392 8.944 86.2685 9.20533 85.8525 9.728C85.4365 10.2507 85.2285 10.9653 85.2285 11.872C85.2285 12.8 85.4365 13.5253 85.8525 14.048C86.2685 14.5707 86.8445 14.832 87.5805 14.832C88.2952 14.832 88.8552 14.5707 89.2605 14.048C89.6765 13.5147 89.8845 12.784 89.8845 11.856C89.8845 10.9493 89.6765 10.24 89.2605 9.728ZM95.0809 16H93.2569V7.744H100.521V16H98.6969V9.184H95.0809V16ZM109.74 16H107.916V9.184H105.388L105.276 12.8C105.244 13.8773 105.01 14.7147 104.572 15.312C104.146 15.8987 103.559 16.192 102.812 16.192C102.354 16.192 101.98 16.1333 101.692 16.016V14.592C101.799 14.6453 102.018 14.672 102.348 14.672C103.074 14.672 103.458 13.9893 103.5 12.624L103.644 7.744H109.74V16ZM111.552 10.288C111.744 8.42133 112.949 7.488 115.168 7.488C116.203 7.488 117.024 7.69067 117.632 8.096C118.251 8.50133 118.56 9.13067 118.56 9.984V14.176C118.56 14.4107 118.587 14.5707 118.64 14.656C118.704 14.7413 118.821 14.784 118.992 14.784C119.12 14.784 119.259 14.7733 119.408 14.752V16.032C118.939 16.1493 118.544 16.208 118.224 16.208C117.445 16.208 116.997 15.8773 116.88 15.216C116.187 15.8773 115.221 16.208 113.984 16.208C113.131 16.208 112.453 15.9893 111.952 15.552C111.451 15.104 111.2 14.5013 111.2 13.744C111.2 13.5093 111.227 13.2907 111.28 13.088C111.333 12.8853 111.392 12.7093 111.456 12.56C111.531 12.4107 111.643 12.272 111.792 12.144C111.952 12.016 112.08 11.9093 112.176 11.824C112.283 11.7387 112.448 11.6587 112.672 11.584C112.907 11.5093 113.077 11.456 113.184 11.424C113.301 11.3813 113.499 11.3387 113.776 11.296C114.053 11.2533 114.235 11.2267 114.32 11.216C114.416 11.1947 114.608 11.168 114.896 11.136C115.547 11.0507 115.989 10.9813 116.224 10.928C116.459 10.864 116.619 10.7733 116.704 10.656C116.779 10.5707 116.816 10.3733 116.816 10.064C116.816 9.232 116.251 8.816 115.12 8.816C114.523 8.816 114.085 8.928 113.808 9.152C113.531 9.376 113.355 9.75467 113.28 10.288H111.552ZM116.8 11.856C116.661 11.9307 116.501 12 116.32 12.064C116.139 12.1173 115.989 12.1547 115.872 12.176C115.765 12.1867 115.589 12.208 115.344 12.24C115.109 12.272 114.955 12.2933 114.88 12.304C114.656 12.336 114.48 12.368 114.352 12.4C114.224 12.4213 114.064 12.464 113.872 12.528C113.691 12.592 113.547 12.672 113.44 12.768C113.344 12.8533 113.259 12.976 113.184 13.136C113.109 13.2853 113.072 13.4667 113.072 13.68C113.072 14.0747 113.2 14.3787 113.456 14.592C113.723 14.8053 114.091 14.912 114.56 14.912C115.371 14.912 115.995 14.6933 116.432 14.256C116.677 14.0107 116.8 13.536 116.8 12.832V11.856ZM126.907 9.184H124.187V16H122.363V9.184H119.643V7.744H126.907V9.184ZM135.055 13.424C134.852 14.32 134.41 15.0187 133.727 15.52C133.055 16.0213 132.25 16.272 131.311 16.272C130.063 16.272 129.071 15.872 128.335 15.072C127.61 14.2613 127.247 13.2267 127.247 11.968C127.247 10.6773 127.62 9.61067 128.367 8.768C129.124 7.92533 130.084 7.504 131.247 7.504C132.452 7.504 133.407 7.92 134.111 8.752C134.815 9.57333 135.167 10.6987 135.167 12.128V12.32H129.071C129.092 13.152 129.3 13.7973 129.695 14.256C130.09 14.704 130.639 14.928 131.343 14.928C131.844 14.928 132.25 14.8107 132.559 14.576C132.879 14.3307 133.13 13.9467 133.311 13.424H135.055ZM133.343 11.104C133.29 10.4107 133.071 9.86667 132.687 9.472C132.314 9.06667 131.828 8.864 131.231 8.864C130.634 8.864 130.148 9.056 129.775 9.44C129.412 9.824 129.188 10.3787 129.103 11.104H133.343Z" fill="white"/>
<path d="M160.43 5.92999L166.5 12L160.43 18.07" stroke="white" stroke-width="1.5" stroke-miterlimit="10" stroke-linecap="round" stroke-linejoin="round"/>
<path d="M149.5 12H166.33" stroke="white" stroke-width="1.5" stroke-miterlimit="10" stroke-linecap="round" stroke-linejoin="round"/>
</svg>
