<svg width="145" height="18" viewBox="0 0 145 18" fill="none" xmlns="http://www.w3.org/2000/svg">
<path d="M1.232 1.608H6.176C7.40267 1.608 8.368 1.90133 9.072 2.488C9.78667 3.064 10.144 3.928 10.144 5.08C10.144 6.168 9.81333 7.032 9.152 7.672C8.49067 8.30133 7.58933 8.616 6.448 8.616H3.232V13H1.232V1.608ZM3.232 3.272V7H6.016C7.46667 7 8.192 6.376 8.192 5.128C8.192 3.89067 7.408 3.272 5.84 3.272H3.232ZM19.0239 10.424C18.8212 11.32 18.3785 12.0187 17.6959 12.52C17.0239 13.0213 16.2185 13.272 15.2799 13.272C14.0319 13.272 13.0399 12.872 12.3039 12.072C11.5785 11.2613 11.2159 10.2267 11.2159 8.968C11.2159 7.67733 11.5892 6.61067 12.3359 5.768C13.0932 4.92533 14.0532 4.504 15.2159 4.504C16.4212 4.504 17.3759 4.92 18.0799 5.752C18.7839 6.57333 19.1359 7.69867 19.1359 9.128V9.32H13.0399C13.0612 10.152 13.2692 10.7973 13.6639 11.256C14.0585 11.704 14.6079 11.928 15.3119 11.928C15.8132 11.928 16.2185 11.8107 16.5279 11.576C16.8479 11.3307 17.0985 10.9467 17.2799 10.424H19.0239ZM17.3119 8.104C17.2585 7.41067 17.0399 6.86667 16.6559 6.472C16.2825 6.06667 15.7972 5.864 15.1999 5.864C14.6025 5.864 14.1172 6.056 13.7439 6.44C13.3812 6.824 13.1572 7.37867 13.0719 8.104H17.3119ZM28.815 15.624H27.087V13H21.215V15.624H19.487V11.56H20.527C21.1777 10.0347 21.503 8.072 21.503 5.672V4.744H27.711V11.56H28.815V15.624ZM25.919 11.56V6.152H23.247V6.712C23.247 7.576 23.1563 8.48267 22.975 9.432C22.7937 10.3707 22.6017 11.08 22.399 11.56H25.919ZM29.8488 7.288C30.0408 5.42133 31.2461 4.488 33.4648 4.488C34.4994 4.488 35.3208 4.69067 35.9288 5.096C36.5474 5.50133 36.8568 6.13067 36.8568 6.984V11.176C36.8568 11.4107 36.8834 11.5707 36.9368 11.656C37.0008 11.7413 37.1181 11.784 37.2888 11.784C37.4168 11.784 37.5554 11.7733 37.7048 11.752V13.032C37.2354 13.1493 36.8408 13.208 36.5208 13.208C35.7421 13.208 35.2941 12.8773 35.1768 12.216C34.4834 12.8773 33.5181 13.208 32.2808 13.208C31.4274 13.208 30.7501 12.9893 30.2488 12.552C29.7474 12.104 29.4967 11.5013 29.4967 10.744C29.4967 10.5093 29.5234 10.2907 29.5768 10.088C29.6301 9.88533 29.6888 9.70933 29.7528 9.56C29.8274 9.41067 29.9394 9.272 30.0888 9.144C30.2488 9.016 30.3768 8.90933 30.4728 8.824C30.5794 8.73867 30.7448 8.65867 30.9688 8.584C31.2034 8.50933 31.3741 8.456 31.4808 8.424C31.5981 8.38133 31.7954 8.33867 32.0728 8.296C32.3501 8.25333 32.5314 8.22667 32.6168 8.216C32.7128 8.19467 32.9048 8.168 33.1927 8.136C33.8434 8.05067 34.2861 7.98133 34.5208 7.928C34.7554 7.864 34.9154 7.77333 35.0008 7.656C35.0754 7.57067 35.1128 7.37333 35.1128 7.064C35.1128 6.232 34.5474 5.816 33.4168 5.816C32.8194 5.816 32.3821 5.928 32.1048 6.152C31.8274 6.376 31.6514 6.75467 31.5768 7.288H29.8488ZM35.0968 8.856C34.9581 8.93067 34.7981 9 34.6168 9.064C34.4354 9.11733 34.2861 9.15467 34.1688 9.176C34.0621 9.18667 33.8861 9.208 33.6408 9.24C33.4061 9.272 33.2514 9.29333 33.1768 9.304C32.9528 9.336 32.7768 9.368 32.6488 9.4C32.5208 9.42133 32.3608 9.464 32.1688 9.528C31.9874 9.592 31.8434 9.672 31.7368 9.768C31.6408 9.85333 31.5554 9.976 31.4808 10.136C31.4061 10.2853 31.3688 10.4667 31.3688 10.68C31.3688 11.0747 31.4968 11.3787 31.7528 11.592C32.0194 11.8053 32.3874 11.912 32.8568 11.912C33.6674 11.912 34.2914 11.6933 34.7288 11.256C34.9741 11.0107 35.0968 10.536 35.0968 9.832V8.856ZM46.5314 13H44.3234L41.7314 9.304L40.6434 10.44V13H38.8194V4.744H40.6434V8.408L43.9394 4.744H46.1634L42.9474 8.056L46.5314 13ZM53.7971 6.184H51.0771V13H49.2531V6.184H46.5331V4.744H53.7971V6.184ZM57.139 13H54.835V4.744H56.659V10.76H56.707L59.795 4.744H62.099V13H60.275V6.984H60.227L57.139 13ZM65.7665 4.744V5.848C66.3212 4.952 67.2172 4.504 68.4545 4.504C69.5958 4.504 70.5078 4.904 71.1905 5.704C71.8732 6.504 72.2145 7.57067 72.2145 8.904C72.2145 10.2053 71.8785 11.2507 71.2065 12.04C70.5452 12.8187 69.6598 13.208 68.5505 13.208C67.3772 13.208 66.4812 12.776 65.8625 11.912V16.056H64.0545V4.744H65.7665ZM68.0865 5.976C67.3718 5.976 66.8118 6.232 66.4065 6.744C66.0012 7.256 65.7985 7.96533 65.7985 8.872C65.7985 9.768 66.0012 10.472 66.4065 10.984C66.8225 11.496 67.3932 11.752 68.1185 11.752C68.8118 11.752 69.3612 11.496 69.7665 10.984C70.1718 10.472 70.3745 9.77867 70.3745 8.904C70.3745 8.008 70.1665 7.29867 69.7505 6.776C69.3452 6.24267 68.7905 5.976 68.0865 5.976ZM77.6278 4.504C78.8864 4.504 79.8891 4.89867 80.6358 5.688C81.3824 6.47733 81.7558 7.53867 81.7558 8.872C81.7558 10.216 81.3824 11.2827 80.6358 12.072C79.8998 12.8613 78.8971 13.256 77.6278 13.256C76.3371 13.256 75.3131 12.8613 74.5558 12.072C73.7984 11.2827 73.4198 10.216 73.4198 8.872C73.4198 7.53867 73.7984 6.47733 74.5558 5.688C75.3238 4.89867 76.3478 4.504 77.6278 4.504ZM79.2918 6.728C78.8864 6.20533 78.3211 5.944 77.5958 5.944C76.8704 5.944 76.2998 6.20533 75.8838 6.728C75.4678 7.25067 75.2598 7.96533 75.2598 8.872C75.2598 9.8 75.4678 10.5253 75.8838 11.048C76.2998 11.5707 76.8758 11.832 77.6118 11.832C78.3264 11.832 78.8864 11.5707 79.2918 11.048C79.7078 10.5147 79.9158 9.784 79.9158 8.856C79.9158 7.94933 79.7078 7.24 79.2918 6.728ZM90.6641 10.664C90.6641 11.4107 90.3975 11.9867 89.8641 12.392C89.3415 12.7973 88.5948 13 87.6241 13H83.2881V4.744H87.8481C88.6161 4.744 89.2135 4.92 89.6401 5.272C90.0775 5.624 90.2961 6.12 90.2961 6.76C90.2961 7.19733 90.2001 7.54933 90.0081 7.816C89.8161 8.08267 89.5175 8.312 89.1121 8.504V8.536C90.1468 8.80267 90.6641 9.512 90.6641 10.664ZM87.6241 9.352H85.1121V11.624H87.6241C88.4455 11.624 88.8561 11.2507 88.8561 10.504C88.8561 10.1413 88.7495 9.85867 88.5361 9.656C88.3228 9.45333 88.0188 9.352 87.6241 9.352ZM87.3841 6.12H85.1121V8.024H87.4321C88.1361 8.024 88.4881 7.69333 88.4881 7.032C88.4881 6.424 88.1201 6.12 87.3841 6.12ZM92.0988 7.288C92.2908 5.42133 93.4961 4.488 95.7148 4.488C96.7494 4.488 97.5708 4.69067 98.1788 5.096C98.7974 5.50133 99.1068 6.13067 99.1068 6.984V11.176C99.1068 11.4107 99.1334 11.5707 99.1868 11.656C99.2508 11.7413 99.3681 11.784 99.5388 11.784C99.6668 11.784 99.8054 11.7733 99.9548 11.752V13.032C99.4854 13.1493 99.0908 13.208 98.7708 13.208C97.9921 13.208 97.5441 12.8773 97.4268 12.216C96.7334 12.8773 95.7681 13.208 94.5308 13.208C93.6774 13.208 93.0001 12.9893 92.4988 12.552C91.9974 12.104 91.7467 11.5013 91.7467 10.744C91.7467 10.5093 91.7734 10.2907 91.8268 10.088C91.8801 9.88533 91.9388 9.70933 92.0028 9.56C92.0774 9.41067 92.1894 9.272 92.3388 9.144C92.4988 9.016 92.6268 8.90933 92.7228 8.824C92.8294 8.73867 92.9948 8.65867 93.2188 8.584C93.4534 8.50933 93.6241 8.456 93.7308 8.424C93.8481 8.38133 94.0454 8.33867 94.3228 8.296C94.6001 8.25333 94.7814 8.22667 94.8668 8.216C94.9628 8.19467 95.1548 8.168 95.4427 8.136C96.0934 8.05067 96.5361 7.98133 96.7708 7.928C97.0054 7.864 97.1654 7.77333 97.2508 7.656C97.3254 7.57067 97.3628 7.37333 97.3628 7.064C97.3628 6.232 96.7974 5.816 95.6668 5.816C95.0694 5.816 94.6321 5.928 94.3548 6.152C94.0774 6.376 93.9014 6.75467 93.8268 7.288H92.0988ZM97.3468 8.856C97.2081 8.93067 97.0481 9 96.8668 9.064C96.6854 9.11733 96.5361 9.15467 96.4188 9.176C96.3121 9.18667 96.1361 9.208 95.8908 9.24C95.6561 9.272 95.5014 9.29333 95.4268 9.304C95.2028 9.336 95.0268 9.368 94.8988 9.4C94.7708 9.42133 94.6108 9.464 94.4188 9.528C94.2374 9.592 94.0934 9.672 93.9868 9.768C93.8908 9.85333 93.8054 9.976 93.7308 10.136C93.6561 10.2853 93.6188 10.4667 93.6188 10.68C93.6188 11.0747 93.7468 11.3787 94.0028 11.592C94.2694 11.8053 94.6374 11.912 95.1068 11.912C95.9174 11.912 96.5414 11.6933 96.9788 11.256C97.2241 11.0107 97.3468 10.536 97.3468 9.832V8.856ZM107.453 6.184H104.733V13H102.909V6.184H100.189V4.744H107.453V6.184ZM114.907 8.44C115.398 8.89867 115.643 9.53867 115.643 10.36C115.643 11.1813 115.398 11.8267 114.907 12.296C114.417 12.7653 113.729 13 112.843 13H108.491V4.744H110.315V7.736H112.827C113.723 7.736 114.417 7.97067 114.907 8.44ZM113.819 10.392C113.819 10.0187 113.713 9.72 113.499 9.496C113.286 9.272 112.987 9.16 112.603 9.16H110.315V11.576H112.635C113.03 11.576 113.323 11.4693 113.515 11.256C113.718 11.032 113.819 10.744 113.819 10.392Z" fill="black"/>
<path d="M135.25 1.5H133.75C130 1.5 128.5 3 128.5 6.75V11.25C128.5 15 130 16.5 133.75 16.5H138.25C142 16.5 143.5 15 143.5 11.25V9.75" stroke="black" stroke-width="1.5" stroke-linecap="round" stroke-linejoin="round"/>
<path d="M139.03 2.26501L133.12 8.17501C132.895 8.40001 132.67 8.84251 132.625 9.16501L132.303 11.4225C132.183 12.24 132.76 12.81 133.578 12.6975L135.835 12.375C136.15 12.33 136.593 12.105 136.825 11.88L142.735 5.97001C143.755 4.95001 144.235 3.76501 142.735 2.26501C141.235 0.765006 140.05 1.24501 139.03 2.26501Z" stroke="black" stroke-width="1.5" stroke-miterlimit="10" stroke-linecap="round" stroke-linejoin="round"/>
<path d="M138.184 3.11255C138.686 4.90505 140.089 6.30755 141.889 6.81755" stroke="black" stroke-width="1.5" stroke-miterlimit="10" stroke-linecap="round" stroke-linejoin="round"/>
</svg>
